<?xml version="1.0" encoding="UTF-8"?>
<svg id="Layer_1" data-name="Layer 1" xmlns="http://www.w3.org/2000/svg" viewBox="0 0 422.93 422.93">
  <defs>
    <style>
      .cls-1 {
        fill: #013228;
        fill-rule: evenodd;
      }
    </style>
  </defs>
  <path class="cls-1" d="M240.82,135.49h58.85v86.36h-58.85v-86.36ZM123.26,135.49h58.85v86.36h-58.85v-86.36Z"/>
  <path class="cls-1" d="M295.54,0H127.38C92.33,0,60.46,14.32,37.4,37.39,14.33,60.47,0,92.32,0,127.39v168.16c0,35.06,14.32,66.91,37.4,89.99,23.07,23.07,54.93,37.4,89.98,37.4h295.55V127.39c0-35.06-14.33-66.92-37.4-89.99C362.46,14.32,330.6,0,295.54,0M225.96,325.86h133.26v64.83h-169.34l36.08-64.83ZM127.38,63.71h168.16c17.47,0,33.4,7.18,44.95,18.73,11.55,11.55,18.73,27.47,18.73,44.95v166.24H127.38c-17.47,0-33.39-7.18-44.94-18.73-11.56-11.55-18.73-27.47-18.73-44.94v-102.57c0-17.47,7.17-33.39,18.73-44.95,11.55-11.55,27.46-18.73,44.94-18.73Z"/>
</svg>