<?xml version="1.0" encoding="UTF-8"?>
<svg id="Layer_1" data-name="Layer 1" xmlns="http://www.w3.org/2000/svg" viewBox="0 0 1588.65 445.94">
  <defs>
    <style>
      .cls-1 {
        fill: #17191a;
      }

      .cls-2 {
        fill: #013228;
        fill-rule: evenodd;
      }
    </style>
  </defs>
  <g>
    <path class="cls-2" d="M220.99,154.22h53.25v78.15h-53.25v-78.15ZM114.6,154.22h53.25v78.15h-53.25v-78.15Z"/>
    <path class="cls-2" d="M270.5,31.61H118.33c-31.72,0-60.56,12.96-81.43,33.84C16.03,86.33,3.06,115.16,3.06,146.89v152.16c0,31.72,12.96,60.55,33.84,81.43,20.88,20.88,49.71,33.84,81.43,33.84h267.44V146.89c0-31.73-12.96-60.56-33.84-81.43-20.88-20.88-49.71-33.84-81.43-33.84M207.53,326.49h120.58v58.67h-153.23l32.65-58.67ZM118.33,89.27h152.17c15.81,0,30.22,6.5,40.67,16.95,10.45,10.45,16.95,24.86,16.95,40.67v150.43H118.33c-15.81,0-30.21-6.5-40.67-16.95-10.46-10.45-16.95-24.86-16.95-40.67v-92.81c0-15.81,6.49-30.22,16.95-40.67,10.45-10.45,24.85-16.95,40.67-16.95Z"/>
  </g>
  <g>
    <g>
      <path class="cls-1" d="M664.53,102.56v168.93h-11.31l-96.03-102.56v99.55h-33.94V99.54h11.06l96.28,102.06v-99.04h33.94Z"/>
      <path class="cls-1" d="M726.12,217.69c4.02,15.84,16.84,24.64,34.94,24.64,12.32,0,23.88-4.27,34.69-12.57l14.08,23.13c-14.83,12.32-31.42,18.6-49.77,18.6-38.46.75-68.88-29.16-68.12-65.11-.75-35.95,29.16-65.86,65.11-65.11,34.44,0,58.57,25.39,58.57,57.82,0,6.03-.75,12.32-2.26,18.6h-87.23ZM782.68,193.81c-.25-15.33-12.07-25.14-26.9-25.14s-25.89,9.8-29.66,25.14h56.56Z"/>
      <path class="cls-1" d="M916.16,268.47l-26.65-39.72-26.9,39.72h-37.96l45.5-64.1-42.48-60.33h37.96l23.88,35.95,23.63-35.95h37.96l-42.74,60.08,45.75,64.35h-37.96Z"/>
      <path class="cls-1" d="M989.82,77.67c12.07,0,21.87,9.05,21.87,21.12s-9.8,20.86-21.87,20.86-21.62-9.05-21.62-20.86,9.55-21.12,21.62-21.12ZM972.98,144.04h33.94v124.43h-33.94v-124.43Z"/>
      <path class="cls-1" d="M1042.86,102.56h109.1v30.67h-75.16v41.48h61.59v30.67h-61.59v63.1h-33.94V102.56Z"/>
      <path class="cls-1" d="M1175.09,79.93h33.94v188.54h-33.94V79.93Z"/>
      <path class="cls-1" d="M1302.29,141.27c36.45-.5,67.62,29.41,66.87,64.86.75,35.44-30.67,65.86-67.12,65.11-36.45.75-67.12-29.66-66.37-65.11-.75-35.45,30.17-65.61,66.62-64.86ZM1302.29,172.19c-18.85,0-32.18,14.33-32.18,34.19s13.32,33.69,32.18,33.69,32.18-14.33,32.18-33.69-13.83-34.19-32.18-34.19Z"/>
      <path class="cls-1" d="M1586.1,144.04l-57.82,127.45h-11.06l-35.7-72.4-35.95,72.4h-11.06l-57.82-127.45h35.7l29.41,70.89,33.94-73.65h11.31l34.44,72.15,28.91-69.38h35.7Z"/>
    </g>
    <g>
      <path class="cls-1" d="M541.83,358.74h-23.37l-3.7,8.65h-8.89l22.89-52.79h2.83l22.89,52.79h-8.97l-3.7-8.65ZM530.19,330.1l-8.73,21.48h17.39l-8.65-21.48Z"/>
      <path class="cls-1" d="M562.76,315.47h8.34v51.93h-8.34v-51.93Z"/>
      <path class="cls-1" d="M630.26,314.6c14.71-.24,27.62,11.96,27.3,26.83.31,14.87-12.59,27.06-27.3,26.83-14.87.24-27.54-11.96-27.22-26.83-.24-14.87,12.43-27.06,27.22-26.83ZM630.34,322.24c-10.78,0-18.65,8.18-18.65,19.12s7.87,19.28,18.65,19.28,18.65-8.18,18.65-19.28-8.03-19.12-18.65-19.12Z"/>
      <path class="cls-1" d="M689.82,367.4h-22.26v-51.93h18.17c9.36,0,15.58,5.82,15.58,13.85,0,4.01-1.5,7.32-4.33,9.76,6.06,1.97,9.68,6.84,9.68,13.22,0,8.73-6.69,15.11-16.84,15.11ZM675.74,322.79v14h9.21c5.11,0,8.02-2.75,8.02-7.08s-2.91-6.92-8.02-6.92h-9.21ZM689.11,343.95h-13.37v16.13h13.37c5.74,0,9.13-3.07,9.13-8.02s-3.38-8.1-9.13-8.1Z"/>
      <path class="cls-1" d="M740.33,314.6c9.52,0,17.78,4.64,22.27,11.96l-6.29,4.64c-3.7-5.74-9.05-8.97-15.89-8.97-10.62,0-18.72,8.18-18.72,19.2s8.1,19.2,18.72,19.2c6.85,0,12.19-3.23,15.89-8.97l6.29,4.64c-4.41,7.32-12.59,11.96-22.27,11.96-14.79.24-27.62-11.96-27.3-26.83-.31-14.87,12.51-27.06,27.3-26.83Z"/>
      <path class="cls-1" d="M772.59,315.47h8.34v20.69h26.12v-20.69h8.34v51.93h-8.34v-23.76h-26.12v23.76h-8.34v-51.93Z"/>
      <path class="cls-1" d="M852.6,314.6c14.71-.24,27.62,11.96,27.3,26.83.31,14.87-12.59,27.06-27.3,26.83-14.87.24-27.54-11.96-27.22-26.83-.24-14.87,12.43-27.06,27.22-26.83ZM852.68,322.24c-10.78,0-18.65,8.18-18.65,19.12s7.87,19.28,18.65,19.28,18.65-8.18,18.65-19.28-8.03-19.12-18.65-19.12Z"/>
      <path class="cls-1" d="M889.9,315.47h16.29c16.99,0,28.24,10.54,28.24,25.88s-11.33,26.04-28.24,26.04h-16.29v-51.93ZM906.11,359.92c12.04,0,19.75-7.71,19.75-18.57s-7.63-18.33-19.75-18.33h-7.87v36.9h7.87Z"/>
      <path class="cls-1" d="M987.14,315.47v52.79h-2.83l-31.63-36.03v35.17h-8.34v-52.79h2.91l31.55,35.88v-35.01h8.34Z"/>
      <path class="cls-1" d="M1000.28,315.47h8.34v51.93h-8.34v-51.93ZM1007.52,295.8h10.07v1.49l-10.15,13.14h-6.14l6.21-14.63Z"/>
      <path class="cls-1" d="M1070.93,358.74h-23.37l-3.7,8.65h-8.89l22.89-52.79h2.83l22.89,52.79h-8.97l-3.7-8.65ZM1059.29,330.1l-8.73,21.48h17.39l-8.65-21.48Z"/>
      <path class="cls-1" d="M1093.67,352.53c3.46,5.04,7.63,8.26,13.61,8.26,5.35,0,8.97-2.83,8.97-7.24,0-3.7-2.2-5.27-7.63-7.79l-5.74-2.67c-7.55-3.46-12.12-7.47-12.12-14.4,0-8.5,7.4-14.08,16.37-14.08,7.32,0,13.53,3.7,16.76,9.28l-5.82,4.48c-2.75-4.09-6.53-6.29-10.94-6.29s-7.87,2.2-7.87,6.29c.31,4.09,2.12,4.8,7.24,7.4l5.82,2.67c8.42,3.86,12.43,7.95,12.43,14.79,0,9.05-7.4,15.03-17.39,15.03-8.5,0-15.58-4.25-19.59-11.25l5.9-4.48Z"/>
      <path class="cls-1" d="M1135.45,315.47h8.34v51.93h-8.34v-51.93Z"/>
      <path class="cls-1" d="M1159.05,352.53c3.46,5.04,7.63,8.26,13.61,8.26,5.35,0,8.97-2.83,8.97-7.24,0-3.7-2.2-5.27-7.63-7.79l-5.74-2.67c-7.55-3.46-12.12-7.47-12.12-14.4,0-8.5,7.4-14.08,16.37-14.08,7.32,0,13.53,3.7,16.76,9.28l-5.82,4.48c-2.75-4.09-6.53-6.29-10.94-6.29s-7.87,2.2-7.87,6.29c.31,4.09,2.12,4.8,7.24,7.4l5.82,2.67c8.42,3.86,12.43,7.95,12.43,14.79,0,9.05-7.4,15.03-17.39,15.03-8.5,0-15.58-4.25-19.59-11.25l5.9-4.48Z"/>
      <path class="cls-1" d="M1213.03,322.94h-17.47v-7.47h43.35v7.47h-17.54v44.45h-8.34v-44.45Z"/>
      <path class="cls-1" d="M1246.7,315.47h34.14v7.47h-25.81v13.3h19.43v7.24h-19.43v16.44h26.75v7.47h-35.09v-51.93Z"/>
      <path class="cls-1" d="M1334.27,315.47v52.79h-2.83l-31.63-36.03v35.17h-8.34v-52.79h2.91l31.55,35.88v-35.01h8.34Z"/>
      <path class="cls-1" d="M1359.6,322.94h-17.47v-7.47h43.35v7.47h-17.54v44.45h-8.34v-44.45Z"/>
    </g>
  </g>
</svg>